<?xml version="1.0" encoding="UTF-8"?>
<svg xmlns="http://www.w3.org/2000/svg" xmlns:xlink="http://www.w3.org/1999/xlink" viewBox="0 0 64 64" width="64px" height="64px">
<defs>
<radialGradient id="radial0" gradientUnits="userSpaceOnUse" cx="86" cy="84.65625" fx="86" fy="84.65625" r="84.00856" gradientTransform="matrix(0.372093,0,0,0.372093,0,0)">
<stop offset="0" style="stop-color:rgb(0%,74.901962%,100%);stop-opacity:1;"/>
<stop offset="0" style="stop-color:rgb(80.000001%,80.000001%,80.000001%);stop-opacity:1;"/>
<stop offset="0.011" style="stop-color:rgb(94.901961%,87.843138%,73.725492%);stop-opacity:1;"/>
<stop offset="0.362" style="stop-color:rgb(97.647059%,92.941177%,82.352942%);stop-opacity:1;"/>
<stop offset="0.699" style="stop-color:rgb(99.607843%,95.686275%,87.450981%);stop-opacity:1;"/>
<stop offset="1" style="stop-color:rgb(100%,96.862745%,89.411765%);stop-opacity:1;"/>
</radialGradient>
<radialGradient id="radial1" gradientUnits="userSpaceOnUse" cx="49.742741" cy="178.169434" fx="49.742741" fy="178.169434" r="187.172394" gradientTransform="matrix(0.372093,0,0,0.372093,0,0)">
<stop offset="0.073" style="stop-color:rgb(91.764706%,80.000001%,48.235294%);stop-opacity:1;"/>
<stop offset="0.184" style="stop-color:rgb(92.54902%,66.666669%,34.901962%);stop-opacity:1;"/>
<stop offset="0.307" style="stop-color:rgb(93.725491%,50.196081%,18.039216%);stop-opacity:1;"/>
<stop offset="0.358" style="stop-color:rgb(93.725491%,42.745098%,22.745098%);stop-opacity:1;"/>
<stop offset="0.46" style="stop-color:rgb(94.117647%,29.411766%,31.37255%);stop-opacity:1;"/>
<stop offset="0.516" style="stop-color:rgb(94.117647%,24.313726%,34.509805%);stop-opacity:1;"/>
<stop offset="0.689" style="stop-color:rgb(85.882354%,20.784314%,61.960787%);stop-opacity:1;"/>
<stop offset="0.724" style="stop-color:rgb(80.784315%,21.568628%,64.313728%);stop-opacity:1;"/>
<stop offset="0.789" style="stop-color:rgb(67.450982%,23.529412%,70.588237%);stop-opacity:1;"/>
<stop offset="0.877" style="stop-color:rgb(45.882353%,26.666668%,81.176472%);stop-opacity:1;"/>
<stop offset="0.98" style="stop-color:rgb(16.862746%,30.980393%,94.901961%);stop-opacity:1;"/>
</radialGradient>
</defs>
<g id="surface472765">
<path style=" stroke:none;fill-rule:nonzero;fill:url(#radial0);" d="M 58 54 C 56.898438 54 56 53.101562 56 52 C 56 50.898438 56.898438 50 58 50 L 60.5 50 C 62.398438 50 64 48.398438 64 46.5 C 64 44.601562 62.398438 43 60.5 43 L 50 43 C 48.601562 43 47.5 41.898438 47.5 40.5 C 47.5 39.101562 48.601562 38 50 38 L 58 38 C 59.699219 38 61 36.699219 61 35 C 61 33.300781 59.699219 32 58 32 L 42 32 L 42 26 L 60 26 C 62.300781 26 64.199219 24 64 21.601562 C 63.800781 19.5 61.898438 18 59.800781 18 L 58 18 C 56.898438 18 56 17.101562 56 16 C 56 14.898438 56.898438 14 58 14 L 58.398438 14 C 59.699219 14 60.898438 13.101562 61 11.800781 C 61.199219 10.300781 60 9 58.5 9 L 44.5 9 C 43.699219 9 43 8.300781 43 7.5 C 43 6.699219 43.699219 6 44.5 6 L 48.398438 6 C 49.699219 6 50.898438 5.101562 51 3.800781 C 51.101562 2.300781 50 1 48.5 1 L 15.601562 1 C 14.300781 1 13.101562 1.898438 13 3.199219 C 12.898438 4.699219 14 6 15.5 6 L 19 6 C 20.101562 6 21 6.898438 21 8 C 21 9.101562 20.101562 10 19 10 L 6.199219 10 C 4.101562 10 2.199219 11.5 2 13.601562 C 1.800781 16 3.699219 18 6 18 L 8.5 18 C 10.398438 18 12 19.601562 12 21.5 C 12 23.398438 10.398438 25 8.5 25 L 5.199219 25 C 3.101562 25 1.199219 26.5 1 28.601562 C 0.800781 31 2.699219 33 5 33 L 22 33 L 22 44 L 6 44 C 4.300781 44 3 45.300781 3 47 C 3 48.699219 4.300781 50 6 50 C 7.101562 50 8 50.898438 8 52 C 8 53.101562 7.101562 54 6 54 L 4.199219 54 C 2.101562 54 0.199219 55.5 0 57.601562 C -0.199219 60 1.699219 62 4 62 L 57.800781 62 C 59.898438 62 61.800781 60.5 62 58.398438 C 62.199219 56 60.300781 54 58 54 Z M 58 54 "/>
<path style=" stroke:none;fill-rule:nonzero;fill:url(#radial1);" d="M 45 57 L 19 57 C 13.5 57 9 52.5 9 47 L 9 21 C 9 15.5 13.5 11 19 11 L 45 11 C 50.5 11 55 15.5 55 21 L 55 47 C 55 52.5 50.5 57 45 57 Z M 45 57 "/>
<path style=" stroke:none;fill-rule:nonzero;fill:rgb(100%,100%,100%);fill-opacity:1;" d="M 32 20 C 36.601562 20 37.101562 20 38.898438 20.101562 C 40.601562 20.199219 41.5 20.5 42.101562 20.699219 C 42.898438 21 43.5 21.398438 44.101562 22 C 44.699219 22.601562 45.101562 23.199219 45.398438 24 C 45.601562 24.601562 45.898438 25.5 46 27.199219 C 46 28.898438 46 29.398438 46 34 C 46 38.601562 46 39.101562 45.898438 40.898438 C 45.800781 42.601562 45.5 43.5 45.300781 44.101562 C 45 44.898438 44.601562 45.5 44 46.101562 C 43.398438 46.699219 42.800781 47.101562 42 47.398438 C 41.398438 47.601562 40.5 47.898438 38.800781 48 C 37.101562 48 36.601562 48 32 48 C 27.398438 48 26.898438 48 25.101562 47.898438 C 23.398438 47.800781 22.5 47.5 21.898438 47.300781 C 21.101562 47 20.5 46.601562 19.898438 46 C 19.300781 45.398438 18.898438 44.800781 18.601562 44 C 18.398438 43.398438 18.101562 42.5 18 40.800781 C 18 39.101562 18 38.601562 18 34 C 18 29.398438 18 28.898438 18.101562 27.101562 C 18.199219 25.398438 18.5 24.5 18.699219 23.898438 C 19 23.101562 19.398438 22.5 20 21.898438 C 20.601562 21.300781 21.199219 20.898438 22 20.601562 C 22.601562 20.398438 23.5 20.101562 25.199219 20 C 26.898438 20 27.398438 20 32 20 M 32 17 C 27.398438 17 26.800781 17 25 17.101562 C 23.199219 17.199219 22 17.5 20.898438 17.898438 C 19.800781 18.300781 18.800781 18.898438 17.898438 19.898438 C 17 20.898438 16.398438 21.800781 15.898438 22.898438 C 15.5 24 15.199219 25.199219 15.101562 27 C 15 28.800781 15 29.398438 15 34 C 15 38.601562 15 39.199219 15.101562 41 C 15.199219 42.800781 15.5 44 15.898438 45.101562 C 16.300781 46.199219 16.898438 47.199219 17.898438 48.101562 C 18.800781 49 19.800781 49.601562 20.898438 50.101562 C 22 50.5 23.199219 50.800781 25 50.898438 C 26.800781 51 27.398438 51 32 51 C 36.601562 51 37.199219 51 39 50.898438 C 40.800781 50.800781 42 50.5 43.101562 50.101562 C 44.199219 49.699219 45.199219 49.101562 46.101562 48.101562 C 47 47.199219 47.601562 46.199219 48.101562 45.101562 C 48.5 44 48.800781 42.800781 48.898438 41 C 49 39.199219 49 38.601562 49 34 C 49 29.398438 49 28.800781 48.898438 27 C 48.800781 25.199219 48.5 24 48.101562 22.898438 C 47.699219 21.800781 47.101562 20.800781 46.101562 19.898438 C 45.101562 19 44.199219 18.398438 43.101562 17.898438 C 42 17.5 40.800781 17.199219 39 17.101562 C 37.199219 17 36.601562 17 32 17 Z M 32 17 "/>
<path style=" stroke:none;fill-rule:nonzero;fill:rgb(100%,100%,100%);fill-opacity:1;" d="M 32 25 C 27 25 23 29 23 34 C 23 39 27 43 32 43 C 37 43 41 39 41 34 C 41 29 37 25 32 25 Z M 32 40 C 28.699219 40 26 37.300781 26 34 C 26 30.699219 28.699219 28 32 28 C 35.300781 28 38 30.699219 38 34 C 38 37.300781 35.300781 40 32 40 Z M 32 40 "/>
<path style=" stroke:none;fill-rule:nonzero;fill:rgb(100%,100%,100%);fill-opacity:1;" d="M 43 25 C 43 26.105469 42.105469 27 41 27 C 39.894531 27 39 26.105469 39 25 C 39 23.894531 39.894531 23 41 23 C 42.105469 23 43 23.894531 43 25 Z M 43 25 "/>
</g>
</svg>
