<svg xmlns="http://www.w3.org/2000/svg" viewBox="0 0 750 500"><g id="freepik--background-complete--inject-35"><path d="M60.52,96.89a2.67,2.67,0,0,1,2.79,0c.23.14.47.27.71.4l.74.38a2.63,2.63,0,0,1,1.55,2.3l.11,3.43,11.16-.35-.1-3.43a2.68,2.68,0,0,1,1.4-2.41,13.84,13.84,0,0,0,1.42-.87,2.66,2.66,0,0,1,2.77-.18l3,1.62L91.36,88l-3-1.61A2.66,2.66,0,0,1,87,83.93c0-.56,0-1.11,0-1.66a2.64,2.64,0,0,1,1.23-2.5L91.05,78l-5.89-9.49-2.93,1.81a2.63,2.63,0,0,1-2.77,0c-.23-.14-.47-.27-.71-.4s-.49-.26-.74-.37a2.66,2.66,0,0,1-1.55-2.31l-.11-3.43-11.16.34.11,3.42a2.67,2.67,0,0,1-1.4,2.41,16,16,0,0,0-1.42.88A2.68,2.68,0,0,1,59.7,71l-3-1.62-5.28,9.85,3,1.61a2.66,2.66,0,0,1,1.39,2.41c0,.56,0,1.12,0,1.67a2.64,2.64,0,0,1-1.23,2.5l-2.91,1.8,5.89,9.49Zm2.8-17.63a9.15,9.15,0,1,1,3.74,12.38A9.16,9.16,0,0,1,63.32,79.26Z" style="fill:#ebebeb"></path><path d="M375.83,162.45l-.12-3.93a2.15,2.15,0,0,0-1.26-1.86c-.26-.12-.51-.25-.77-.39s-.49-.27-.73-.42a2.18,2.18,0,0,0-2.27,0l-.26-.42.26.42-3.33,2.07-6.42-10.34,3.34-2.06a2.17,2.17,0,0,0,1-2,16.58,16.58,0,0,1-.05-1.73,2.16,2.16,0,0,0-1.12-2l-3.46-1.85,5.76-10.72,3.45,1.85a2.15,2.15,0,0,0,2.25-.15,15.69,15.69,0,0,1,1.47-.91,2.16,2.16,0,0,0,1.14-2l-.13-3.92,12.17-.38.11,3.93a2.19,2.19,0,0,0,1.27,1.88,7.69,7.69,0,0,1,.76.38c.25.13.5.27.74.42a2.15,2.15,0,0,0,2.25,0l3.35-2.08,6.42,10.34-3.34,2.07a2.17,2.17,0,0,0-1,2,16.29,16.29,0,0,1,.06,1.71,2.14,2.14,0,0,0,1.12,2l3.46,1.85L396.18,157l-3.45-1.85a2.13,2.13,0,0,0-2.25.14c-.47.33-1,.63-1.46.91a2.12,2.12,0,0,0-1.14,2l.12,3.92Zm-4.05-7.93a3.23,3.23,0,0,1,1.68.48c.23.14.46.27.7.39s.47.25.71.36a3.14,3.14,0,0,1,1.84,2.74l.09,2.93,10.17-.31-.09-2.93a3.13,3.13,0,0,1,1.66-2.86c.46-.26.92-.54,1.37-.85a3.15,3.15,0,0,1,3.29-.21l2.58,1.38,4.8-9L398,145.3a3.14,3.14,0,0,1-1.65-2.86c0-.53,0-1.07-.05-1.61a3.14,3.14,0,0,1,1.46-3l2.49-1.54-5.36-8.64-2.5,1.55a3.14,3.14,0,0,1-3.3,0l-.69-.39c-.24-.13-.47-.25-.71-.36a3.17,3.17,0,0,1-1.85-2.75l-.08-2.93-10.17.32.1,2.92a3.16,3.16,0,0,1-1.66,2.86,15,15,0,0,0-1.38.85,3.13,3.13,0,0,1-3.29.21l-2.58-1.38-4.8,9,2.57,1.38a3.17,3.17,0,0,1,1.65,2.86,14.54,14.54,0,0,0,.05,1.62,3.16,3.16,0,0,1-1.47,3l-2.48,1.53,5.36,8.64,2.48-1.54A3.16,3.16,0,0,1,371.78,154.52Zm9.49-2.77a9.66,9.66,0,1,1,8.51-5.09A9.58,9.58,0,0,1,381.27,151.75Zm0-18.3a8.74,8.74,0,0,0-2.52.37,8.63,8.63,0,1,0,2.52-.37Z" style="fill:#ebebeb"></path><path d="M528.53,260.05a1.87,1.87,0,0,1,.91,1.73c0,.19,0,.38,0,.58s0,.39,0,.58a1.85,1.85,0,0,1-.91,1.72l-2.08,1.2,3.91,6.78,2.08-1.2a1.85,1.85,0,0,1,1.95.06,11.53,11.53,0,0,0,1,.59,1.85,1.85,0,0,1,1,1.65v2.4h7.83v-2.4a1.86,1.86,0,0,1,1-1.65,9.19,9.19,0,0,0,1-.59,1.85,1.85,0,0,1,2-.06l2.08,1.2,3.91-6.78-2.09-1.21a1.86,1.86,0,0,1-.9-1.72c0-.19,0-.38,0-.57s0-.39,0-.58a1.85,1.85,0,0,1,.91-1.72l2.08-1.2-3.91-6.78-2.07,1.2a1.85,1.85,0,0,1-2-.07,11.41,11.41,0,0,0-1-.58,1.87,1.87,0,0,1-1-1.66v-2.39h-7.83V251a1.87,1.87,0,0,1-1,1.66,9.12,9.12,0,0,0-1,.58,1.85,1.85,0,0,1-1.95.07l-2.08-1.2-3.91,6.78Zm11.81-4.11a6.41,6.41,0,1,1-6.41,6.42A6.42,6.42,0,0,1,540.34,255.94Z" style="fill:#ebebeb"></path><path d="M647.06,121.27A30.47,30.47,0,1,0,677.53,90.8,30.47,30.47,0,0,0,647.06,121.27Zm16.24,0a14.24,14.24,0,1,1,14.23,14.23A14.23,14.23,0,0,1,663.3,121.27Z" style="fill:#ebebeb"></path><polygon points="671.67 92.06 683.39 92.06 682.74 83.77 672.32 83.77 671.67 92.06" style="fill:#ebebeb"></polygon><polygon points="693.98 96.01 702.26 104.3 707.67 97.97 700.3 90.6 693.98 96.01" style="fill:#ebebeb"></polygon><polygon points="706.96 114.57 706.96 126.29 715.25 125.64 715.25 115.22 706.96 114.57" style="fill:#ebebeb"></polygon><polygon points="703.01 136.88 694.72 145.16 701.04 150.57 708.41 143.2 703.01 136.88" style="fill:#ebebeb"></polygon><polygon points="684.45 149.86 672.73 149.86 673.38 158.15 683.8 158.15 684.45 149.86" style="fill:#ebebeb"></polygon><polygon points="662.14 145.91 653.86 137.62 648.45 143.95 655.82 151.32 662.14 145.91" style="fill:#ebebeb"></polygon><polygon points="649.16 127.35 649.16 115.63 640.87 116.28 640.87 126.7 649.16 127.35" style="fill:#ebebeb"></polygon><polygon points="653.11 105.04 661.4 96.76 655.07 91.35 647.7 98.72 653.11 105.04" style="fill:#ebebeb"></polygon><path d="M203.43,339.81H192.08l-.53-6.84a30.28,30.28,0,0,1-11.32-4.32L175,333.16l-8-8,4.32-5.06a30.31,30.31,0,0,1-4.86-11.22l-6.86-.53V297l6.78-.54a30.29,30.29,0,0,1,4.56-11.1l-4.69-5.48,8-8,5.5,4.71a30.55,30.55,0,0,1,10.72-4.43l.59-7.68h11.35l.6,7.68a30.18,30.18,0,0,1,10.4,4.22l6.12-5.24,8,8-5.14,6a30.28,30.28,0,0,1,4.45,10.17l8.09.63v11.36l-7.73.59a30.33,30.33,0,0,1-4,10.6l5.08,5.92-8,8-5.57-4.75A30.43,30.43,0,0,1,204,332.53Zm-10.42-1h9.49l.56-7.09.36-.08a29.58,29.58,0,0,0,11-5l.32-.23,5.47,4.66,6.72-6.71L222,318.56l.19-.31a29.38,29.38,0,0,0,4.11-10.93l.07-.39,7.59-.58v-9.5l-7.9-.62-.08-.36a29.52,29.52,0,0,0-4.6-10.5l-.22-.32,5-5.88-6.72-6.72-6,5.13-.32-.21A29.37,29.37,0,0,0,202.4,273l-.37-.07-.59-7.51H192l-.58,7.51L191,273a29.39,29.39,0,0,0-11,4.57l-.13.08h-.34l-.15-.12-5.08-4.35-6.71,6.72,4.59,5.36-.22.32A29.35,29.35,0,0,0,167.23,297l-.07.38-6.62.53v9.49l6.69.52.08.38a29.23,29.23,0,0,0,5,11.52l.23.32-4.23,4.95L175,331.8l5.14-4.39.31.2a29.33,29.33,0,0,0,11.63,4.44l.39.06Zm3.69-21.65a14.73,14.73,0,1,1,14.74-14.73A14.74,14.74,0,0,1,196.7,317.16Zm0-28.46a13.73,13.73,0,1,0,13.74,13.73A13.75,13.75,0,0,0,196.7,288.7Z" style="fill:#ebebeb"></path><path d="M113.27,357.79c-5.74.1-20.22.35-25.77.41l-8.69.05h-.45v-.46l0-11.19v-.5h.5l17.23.07c4.29,0,12.94.13,17.23.19h.25v.24l-.24,11.19Zm0,0L113,346.6l.24.24c-4.3.06-12.93.16-17.23.19l-17.23.07.5-.5,0,11.19-.45-.45,8.54,0c5.46.06,20.27.31,25.92.41Z" style="fill:#ebebeb"></path><path d="M94.05,371.9c-5.74.1-20.22.35-25.77.41l-8.69.05h-.46v-.46l0-11.19v-.5h.51l17.23.07c4.29,0,12.94.13,17.23.19h.24v.24l-.24,11.19Zm0,0-.24-11.19.24.24c-4.3.06-12.94.16-17.23.19l-17.23.07.5-.5L60,371.9l-.45-.45,8.53,0c5.46.06,20.28.31,25.93.41Z" style="fill:#ebebeb"></path><path d="M292.52,119c-5.74.1-20.21.35-25.76.41l-8.7.05h-.45V119l-.05-11.19v-.5h.5l17.23.07c4.29,0,12.94.13,17.23.19h.25v.23L292.52,119Zm0,0-.24-11.19.24.24c-4.3.07-12.93.16-17.23.2l-17.23.06.5-.5,0,11.19-.46-.45,8.54,0c5.46.07,20.27.32,25.92.41Z" style="fill:#ebebeb"></path><path d="M273.3,133.08c-5.74.1-20.22.35-25.77.41l-8.69,0h-.45v-.46l0-11.19v-.5h.5l17.23.07c4.29,0,12.94.13,17.23.19h.25v.23l-.24,11.19Zm0,0-.24-11.19.24.24c-4.3.06-12.93.16-17.23.2l-17.23.06.5-.5-.05,11.19-.45-.45,8.54,0c5.46.07,20.27.32,25.92.41Z" style="fill:#ebebeb"></path><rect x="277.29" y="121.89" width="34.46" height="11.19" style="fill:#ebebeb"></rect><rect x="640.07" y="360.71" width="34.46" height="11.19" style="fill:#ebebeb"></rect><rect x="640.07" y="43.24" width="34.46" height="11.19" style="fill:#ebebeb"></rect><path d="M693.75,68.54c-5.74.1-20.22.35-25.76.41l-8.7,0h-.45v-.46l-.05-11.19v-.5h.5l17.23.07c4.29,0,12.94.13,17.23.19H694v.23l-.24,11.19Zm0,0-.24-11.19.24.24c-4.3.07-12.93.16-17.23.2l-17.23.06.5-.5,0,11.19-.46-.45,8.54,0c5.46.07,20.27.32,25.92.41Z" style="fill:#ebebeb"></path><path d="M90.71,54.45c-5.74.1-20.22.34-25.77.41l-8.69,0h-.46v-.45l0-11.19v-.51h.5l17.23.06c4.29,0,12.94.13,17.23.19H91v.24l-.24,11.19Zm0,0-.24-11.19.24.24c-4.3.06-12.93.15-17.23.19l-17.23.06.5-.49,0,11.19L56.25,54l8.53,0c5.47.07,20.28.32,25.93.42Z" style="fill:#ebebeb"></path><rect x="384.17" y="310.43" width="34.46" height="11.19" transform="translate(802.8 632.05) rotate(180)" style="fill:#ebebeb"></rect><path d="M403.39,296.32c5.75-.1,20.22-.35,25.77-.41l8.69,0h.46v.46l0,11.19v.5h-.51l-17.23-.07c-4.29,0-12.94-.13-17.23-.19h-.24v-.24l.24-11.19Zm0,0,.25,11.19-.25-.24c4.3-.06,12.94-.15,17.23-.19l17.23-.07-.49.5,0-11.19.45.46-8.53,0c-5.46-.06-20.28-.31-25.93-.41Z" style="fill:#ebebeb"></path></g><g id="freepik--Floor--inject-35"><path d="M43.61,433.06c212.31-.61,450.47-.62,662.78,0-212.31.62-450.47.61-662.78,0Z" style="fill:#263238"></path></g><g id="freepik--character-3--inject-35"><path d="M426.4,113.83a21.23,21.23,0,0,0-8.52-3.82,19.68,19.68,0,0,0-4.89-.64c-7.54-.08-16.26,3.81-25.31,12-10.87,10.41-20.95,27-26.13,47.33-5.11,20.09-4.16,39.47.58,53.11,3.32,9.36,7.89,15.8,13.13,19.62l-9.91-7.23c-5.24-3.82-9.83-10.25-13.13-19.62-4.75-13.64-5.69-33-.59-53.1,5.18-20.37,15.27-36.93,26.14-47.34,9-8.2,17.76-12.09,25.3-12a19.62,19.62,0,0,1,4.89.64,21.33,21.33,0,0,1,8.53,3.82Z" style="fill:#FFD700"></path><g style="opacity:0.1"><path d="M426.4,113.83a21.23,21.23,0,0,0-8.52-3.82,19.68,19.68,0,0,0-4.89-.64c-7.54-.08-16.26,3.81-25.31,12-10.87,10.41-20.95,27-26.13,47.33-5.11,20.09-4.16,39.47.58,53.11,3.32,9.36,7.89,15.8,13.13,19.62l-9.91-7.23c-5.24-3.82-9.83-10.25-13.13-19.62-4.75-13.64-5.69-33-.59-53.1,5.18-20.37,15.27-36.93,26.14-47.34,9-8.2,17.76-12.09,25.3-12a19.62,19.62,0,0,1,4.89.64,21.33,21.33,0,0,1,8.53,3.82Z"></path></g><path d="M471.17,193.66c-6.83,25.69-19.26,48-36.08,63.33-13.36,12.52-30.34,21.16-48.19,21a54,54,0,0,1-11.41-1.34,52.13,52.13,0,0,1-19.15-8.77l-9.91-7.23a52,52,0,0,0,19.15,8.77A53.82,53.82,0,0,0,377,270.76c17.85.17,34.83-8.48,48.19-21,16.81-15.33,29.24-37.64,36.08-63.33,6.34-26.08,5.93-51-1.67-71.9-4.67-13.73-12.65-26-23.87-34.15l9.92,7.22c11.21,8.17,19.19,20.42,23.86,34.16C477.1,142.64,477.51,167.57,471.17,193.66Z" style="fill:#FFD700"></path><g style="opacity:0.1"><path d="M471.17,193.66c-6.83,25.69-19.26,48-36.08,63.33-13.36,12.52-30.34,21.16-48.19,21a54,54,0,0,1-11.41-1.34,52.13,52.13,0,0,1-19.15-8.77l-9.91-7.23a52,52,0,0,0,19.15,8.77A53.82,53.82,0,0,0,377,270.76c17.85.17,34.83-8.48,48.19-21,16.81-15.33,29.24-37.64,36.08-63.33,6.34-26.08,5.93-51-1.67-71.9-4.67-13.73-12.65-26-23.87-34.15l9.92,7.22c11.21,8.17,19.19,20.42,23.86,34.16C477.1,142.64,477.51,167.57,471.17,193.66Z"></path></g><path d="M459.58,114.52c7.61,20.89,8,45.83,1.68,71.91-6.84,25.69-19.27,48-36.08,63.33-13.36,12.52-30.34,21.17-48.19,21a54,54,0,0,1-11.42-1.34c-21.37-4.86-36.23-22.6-43.35-43.08-7.33-20.82-8-46.1-1.4-71.85,6.63-26,19.26-48,35.81-63.39,13.41-12.75,30.54-21.2,48.13-21A52.82,52.82,0,0,1,416,71.38C437.88,76.37,452.53,93.77,459.58,114.52Zm-29.13,64.91c5.18-20.37,4.16-39.46-.51-53.39-5.31-13.78-13.31-21.58-22-23.26a20.1,20.1,0,0,0-4.89-.64c-7.54-.07-16.26,3.82-25.3,12-10.88,10.4-21,27-26.14,47.33-5.11,20.08-4.16,39.46.59,53.11,4.94,14,12.73,21.45,21.34,23.41a22.48,22.48,0,0,0,4.7.54c7.7.07,16.7-3.6,26.13-12.08,10.79-10.12,20.95-27,26.06-47" style="fill:#FFD700"></path><path d="M485.48,281.69s-7.09,1-9.74,6.35-14.93,33.53-17.39,39-23.44,30.68-23.44,30.68,6.9,9.31,9,11.3c2.91,2.76,14,7.89,14,7.89s14.35-39.62,15.73-43.74S485.48,281.69,485.48,281.69Z" style="fill:#FFD700"></path><path d="M457.93,346.37a3.3,3.3,0,0,0-2.93,1,10.52,10.52,0,0,0-3.13,3.42c-.41.75-.86,2,.14,2.46s2.61-.65,3.41-1.23S460.6,347.05,457.93,346.37Zm-11.2.51c-1.54.07-2.66,1.77-3.27,3a9.6,9.6,0,0,0-1,3.18,2.73,2.73,0,0,0,.19,1.76c.81,1.38,2.08-.11,2.75-.83a9.84,9.84,0,0,0,2.72-4.69C448.29,348.19,448.17,346.81,446.73,346.88Zm12-8.41c-.65-.63-1.48-.38-2.25.19a8.75,8.75,0,0,0-2.29,2.43c-.34.59-.93,1.61-.5,2.3s1.38.43,2,.1C456.7,342.9,460.18,339.89,458.72,338.47Zm-13.38,31.7a13.29,13.29,0,0,1-1.43-1.12c-.21-.19-.45-.45-.73-.76l.25,0c.95-.14,1.79.05,2.06.93A1.06,1.06,0,0,1,445.34,370.17Zm-5.76-6.29c-1.55-2-3.07-4-3.93-5.14a9.88,9.88,0,0,1,.24-1.3,7.13,7.13,0,0,1,.6-1.6l0,0a2.7,2.7,0,0,1,.66-.79l0,0a1.74,1.74,0,0,1,1.08-.37c1.89,0,2,2.56,2.07,3.88A9.77,9.77,0,0,1,439.58,363.88Zm4.39-4.56c-.94,2.56-.45,4.31.27,4.48,1.44.33,2.63-1.65,3.24-3.3.48-1.29.74-3.84-.19-4.29C446.52,355.84,444.85,357,444,359.32ZM479.38,309c-.12.51-.23,1-.35,1.53A2.16,2.16,0,0,1,479.38,309Zm-4.7-4.56c-1.54,0-2.77,1.59-3.46,2.78A9.73,9.73,0,0,0,470,310.3a2.69,2.69,0,0,0,.07,1.77c.72,1.43,2.08,0,2.8-.65a9.89,9.89,0,0,0,3-4.51C476.16,305.82,476.12,304.44,474.68,304.41Zm7.68-8.71c-.3,1.37-.63,2.8-.95,4.27a1,1,0,0,1-1.11-.47c-.39-.73.27-1.7.65-2.27A9.15,9.15,0,0,1,482.36,295.7Zm-11.24,20.95c-1.11,2.49-.73,4.27,0,4.48,1.41.42,2.73-1.47,3.44-3.08.56-1.25,1-3.78.09-4.29C473.89,313.34,472.15,314.35,471.12,316.65Zm-9.05,9.48c-.93-.06-1.61.71-2,1.65a7.22,7.22,0,0,0-.69,2.17c-.06.48,0,1.16.63,1.21s1.33-.78,1.64-1.26S463.93,326.25,462.07,326.13Z" style="fill:#263238"></path><path d="M384.09,433.46c-1.95-.65-.21-6.3,2-8a56.33,56.33,0,0,1,6.48-3.41c7.09-3.41,17.27-8,17.27-8l-8.68-36.78,35.37.2s9.66,34.53,9.6,36.68c0,.13,0,.26,0,.4-.3,9.74-.78,17.72-1.58,18.22C442.35,434.13,386.06,434.12,384.09,433.46Z" style="fill: rgb(235, 148, 129);"></path><path d="M384.09,433.46c2,.66,58.27.67,60.41-.69.8-.5,1.28-8.47,1.59-18.22v-.4A42.43,42.43,0,0,0,445,409H408.61l1.19,5.07s-10.19,4.55-17.27,7.95a55.79,55.79,0,0,0-6.48,3.42C383.87,427.16,382.14,432.81,384.09,433.46Z" style="fill:#ebebeb"></path><path d="M383.46,433.78c2,.67,59.32.6,61.5-.79.84-.51,1.31-8.86,1.6-19,0-.11,0-.21,0-.32l-37-.37V414s-21.92,9.84-24.16,11.62S381.46,433.11,383.46,433.78Z" style="fill:#FFD700"></path><path d="M384.11,431.55c9.66-.25,48.65-.34,58.22.15.08,0,.08.06,0,.06-9.57.46-48.56.23-58.22-.05C383.9,431.71,383.9,431.56,384.11,431.55Z" style="fill:#263238"></path><path d="M405.47,413.44c3.8-.71,8.45-.13,11.36,2.57.12.11,0,.26-.16.23a53.16,53.16,0,0,0-11.18-2.32A.24.24,0,0,1,405.47,413.44Z" style="fill:#263238"></path><path d="M402.73,415.1c3.8-.72,8.45-.14,11.36,2.57.11.1,0,.26-.16.22a53.91,53.91,0,0,0-11.18-2.31A.24.24,0,0,1,402.73,415.1Z" style="fill:#263238"></path><path d="M400,416.76c3.8-.72,8.45-.14,11.36,2.57.11.1,0,.26-.16.22A53.36,53.36,0,0,0,400,417.24.24.24,0,0,1,400,416.76Z" style="fill:#263238"></path><path d="M402.23,410.57c2.69,2.09,6.19,2.94,9.33,4.09a.47.47,0,0,0,.6-.47.11.11,0,0,0,.09-.14,20.37,20.37,0,0,0-5.87-8.7c-1.59-1.33-4.37-2.26-5.86-.2S400.66,409.35,402.23,410.57Zm-1-3.06c-.68-4.17,3.8-2,4.94-1a21.9,21.9,0,0,1,2,2.18,60.16,60.16,0,0,1,3.54,5c-1.51-.66-3.06-1.19-4.59-1.8C405.34,411.21,401.63,409.81,401.26,407.51Z" style="fill:#263238"></path><path d="M424.93,408.24c-.92-2.37-3.84-2.18-5.72-1.29a20.25,20.25,0,0,0-7.87,6.93.1.1,0,0,0,.05.16.47.47,0,0,0,.45.61c3.34-.33,6.94-.26,10.07-1.6C423.74,412.27,425.81,410.49,424.93,408.24Zm-8.14,4.88c-1.63.2-3.27.32-4.89.58a61.2,61.2,0,0,1,4.69-3.95,21.1,21.1,0,0,1,2.5-1.59c1.35-.71,6.24-1.69,4.53,2.17C422.68,412.47,418.74,412.88,416.79,413.12Z" style="fill:#263238"></path><path d="M485.78,352.77s6.34,23-4.72,29.74c-7.39,4.54-40.05-1.74-41.44-5.77C437,369.11,437,366.32,437,366.32l8.38,40.43-41.14.48s-7.72-33.45-5.74-69c.74-13.12,18.38-17.1,30.66-10.57,11.9,6.33,33.21,23.91,33.21,23.91Z" style="fill:#37474f"></path><path d="M441.9,383.06c-2.21-5.43-2-7.56-7.58-24.4-.74-2.25-1.36-4.54-2-6.82s-1.5-4.71-2-7.11c0-.12-.21-.07-.18,0,.64,2.08,1.06,4.23,1.61,6.33s1.08,4.13,1.66,6.18c.25.89.51,1.77.76,2.65-.11-.18-.22-.36-.32-.54-.49-.83-1-1.66-1.48-2.48-1-1.68-2.29-3.27-3.2-5-.05-.11-.23,0-.16.09,1,1.68,1.79,3.55,2.77,5.28.47.83,1,1.65,1.48,2.47a15.78,15.78,0,0,0,1.48,2.18c.75,2.6,2.38,8.86,3.18,11.45,2.55,8.14,1.71,5.49,3.61,9.86C441.59,383.45,442,383.29,441.9,383.06Z" style="fill:#263238"></path><path d="M423.16,400.07c6.2-.07,12.38-.42,18.57-.54.12,0,.14-.18,0-.18-6.18,0-12.34-.28-18.51-.2s-12.38.37-18.57.58c-.16,0-.18.25,0,.25C410.82,400,417,400.13,423.16,400.07Z" style="fill:#263238"></path><path d="M438.34,398c-.56-2.74-1.35-5.42-2.08-8.12s-1.44-5.4-2.19-8.09c-1.49-5.39-3.05-10.76-4.6-16.13-.88-3.05-1.83-6.08-2.76-9.12a.07.07,0,0,0-.14,0q4.14,16.25,8.9,32.33c.89,3,1.71,6.13,2.78,9.11C438.27,398.08,438.36,398.06,438.34,398Z" style="fill:#263238"></path><path d="M481.06,382.51c11.07-6.79,4.73-29.75,4.73-29.75l-19.75-1-26.87,23.62.45,1.32C441,380.77,473.67,387.05,481.06,382.51Z" style="fill:#263238"></path><path d="M404,406.3l.2.93,41.14-.48-6.45-31.12Z" style="fill:#263238"></path><path d="M570.05,437.7c.36,2-5.42,3.23-8,2.16a57.32,57.32,0,0,1-6.11-4c-6.4-4.57-15.29-11.31-15.29-11.31l-30.23,1.83-16.87-31.09s27.8-1.61,29.71-2.59l.35-.18c8.69-4.43,15.91-7.85,16.74-7.39C542.57,386.32,569.67,435.66,570.05,437.7Z" style="fill: rgb(235, 148, 129);"></path><path d="M518,393.47l15.91,31.47,6.79-.42s8.9,6.73,15.3,11.31a56.53,56.53,0,0,0,6.1,4c2.58,1.07,8.36-.13,8-2.16s-27.48-51.38-29.7-52.6c-.82-.46-8.05,3-16.74,7.39-.12.05-.23.12-.35.18A27.91,27.91,0,0,1,518,393.47Z" style="fill:#ebebeb"></path><path d="M570.63,438.11c-.38-2.08-28-52.28-30.31-53.52-.85-.49-8.4,3.12-17.4,7.73l-.28.15,17.49,32.59.54-.32s19.18,14.48,21.82,15.58S571,440.18,570.63,438.11Z" style="fill:#FFD700"></path><path d="M568.37,438.61c-4.87-8.35-23.73-42.48-27.91-51.1,0-.07,0-.09,0,0,5,8.17,23.59,42.45,28,51C568.6,438.72,568.47,438.79,568.37,438.61Z" style="fill:#263238"></path><path d="M542.2,428.61c-2.45-3-4.19-7.34-3.22-11.19,0-.15.25-.1.28,0a53,53,0,0,0,3.36,10.91A.25.25,0,0,1,542.2,428.61Z" style="fill:#263238"></path><path d="M545,430.22c-2.46-3-4.19-7.35-3.22-11.2,0-.15.25-.09.27,0A53.66,53.66,0,0,0,545.39,430,.24.24,0,0,1,545,430.22Z" style="fill:#263238"></path><path d="M547.75,431.82c-2.46-3-4.19-7.34-3.22-11.19,0-.15.25-.1.28,0a53.64,53.64,0,0,0,3.35,10.92A.24.24,0,0,1,547.75,431.82Z" style="fill:#263238"></path><path d="M541.25,432.84c.53-3.37-.41-6.85-.91-10.16a.47.47,0,0,0-.7-.29.1.1,0,0,0-.16,0,20.32,20.32,0,0,0-4.81,9.33c-.4,2,.13,4.92,2.66,5.23C539.71,437.24,540.94,434.8,541.25,432.84ZM539,435.16c-3.33,2.6-3.58-2.38-3.22-3.87a23.11,23.11,0,0,1,.93-2.81,58.43,58.43,0,0,1,2.69-5.51c.14,1.64.42,3.25.63,4.89C540.31,429.8,540.87,433.73,539,435.16Z" style="fill:#263238"></path><path d="M528.28,414.06c-1.64,1.95-.06,4.42,1.62,5.64a20.35,20.35,0,0,0,9.87,3.56.11.11,0,0,0,.11-.12.48.48,0,0,0,.32-.7c-1.9-2.76-3.58-5.95-6.26-8.05C532.38,413.17,529.82,412.21,528.28,414.06Zm8.19,4.78c1,1.34,1.86,2.71,2.87,4a60.8,60.8,0,0,1-5.72-2.2,23.45,23.45,0,0,1-2.6-1.43c-1.28-.85-4.49-4.66-.28-5C533.06,414,535.32,417.25,536.47,418.84Z" style="fill:#263238"></path><path d="M459.76,347.15a168.17,168.17,0,0,0-1,16.85S419.72,384.48,417.94,404c-.63,6.89.29,19.81,13.81,25.7,15.11,6.58,98.6,2.05,98.6,2.05l-10.43-38.44H483.09s26,4.14,28.81-13.18c2.62-16.09-7.26-32.94-7.26-32.94Z" style="fill:#37474f"></path><path d="M521.72,429.82c-.92-4.43-1.81-8.88-2.83-13.29s-2.13-8.81-3.29-13.19c-.33-1.24-.67-2.47-1-3.7-.16-.59-.32-1.18-.49-1.76s-.31-1.21-.54-1.77c0-.06-.1,0-.09,0a28.34,28.34,0,0,0,.66,3.4l.69,3.21q.72,3.3,1.48,6.58c1,4.4,2.12,8.75,3.27,13.11.64,2.47,1.3,4.94,1.95,7.41C521.57,430,521.75,430,521.72,429.82Z" style="fill:#263238"></path><path d="M495.81,393.27c-3-.22-6-.31-9-.37s-6,0-9,0-6,.22-9,.48a66.2,66.2,0,0,0-8.88,1.29l2.22-.29,2.23-.21c1.48-.13,3-.25,4.46-.32,3-.17,6-.29,8.95-.34s6-.13,8.95-.17Z" style="fill:#263238"></path><path d="M496.46,350.3a107.65,107.65,0,0,1,3.47,10.46,67.49,67.49,0,0,1,2.13,10.77,30.21,30.21,0,0,1,.11,5.46,13.54,13.54,0,0,1-1.32,5.19,7.41,7.41,0,0,1-1.6,2.08,13.05,13.05,0,0,1-2.19,1.54,24.63,24.63,0,0,1-5,2,68.4,68.4,0,0,1-10.78,1.95c-3.64.43-7.3.72-11,1.1a78.58,78.58,0,0,0-11,1.7,21.5,21.5,0,0,0-5.26,1.94,25.29,25.29,0,0,0-4.58,3.24l-.83.74,1.12,0,29.78-.4,14.89-.12c5,0,9.92,0,14.88.11-4.95-.29-9.92-.37-14.88-.46s-9.93-.09-14.9-.11H464.67l-14.89.14.29.72a24.38,24.38,0,0,1,4.42-3.1,20.54,20.54,0,0,1,5.06-1.84,88.87,88.87,0,0,1,10.84-1.67c3.65-.39,7.31-.7,11-1.15a68.81,68.81,0,0,0,10.9-2,23.51,23.51,0,0,0,5.17-2.14,13.62,13.62,0,0,0,2.29-1.66,8.12,8.12,0,0,0,1.71-2.29,14.26,14.26,0,0,0,1.32-5.45,31.17,31.17,0,0,0-.19-5.55,64,64,0,0,0-2.36-10.8A95.07,95.07,0,0,0,496.46,350.3Z" style="fill:#263238"></path><path d="M464,346.74a.07.07,0,0,0-.14,0c-.16,1.33-.62,8.93-.85,11.8-.09,1,0,2.84-1.52,2.84-1.18,0-1.76-1.29-1.89-2.29-.16-1.21.49-10,.64-13,0-.08-.13-.09-.15,0-.54,2.95-1.59,12.31-1.27,13.62a3,3,0,0,0,1.82,2.35,18.88,18.88,0,0,0,.05,3.47c0,.1.3.13.33,0h0c0-.69.32-3.35.31-3.37a2.1,2.1,0,0,0,1.89-.86C464.27,360,464,350.13,464,346.74Z" style="fill:#263238"></path><path d="M468.23,369.3c-1.06-.74-2.16-1.41-3.27-2.06s-2.24-1.28-3.38-1.89-2.28-1.18-3.46-1.72-2.35-1.06-3.57-1.49c.55.34,1.12.64,1.67,1l1.69.94c1.12.63,2.26,1.23,3.39,1.84s2.28,1.19,3.44,1.76l1.73.84C467.06,368.76,467.64,369,468.23,369.3Z" style="fill:#263238"></path><path d="M496,363.18c-2.07,0-8.54.37-11.62-2.23-2.49-2.11-3.59-9.29-4-11.27,0-.1-.16-.06-.16,0a22.69,22.69,0,0,0,.83,6.6c.5,1.82,1.18,3.85,2.65,5.13a10.45,10.45,0,0,0,5.63,2.06,25.91,25.91,0,0,0,6.7-.1A.11.11,0,0,0,496,363.18Z" style="fill:#263238"></path><path d="M499.73,282a4.21,4.21,0,0,0,6.37-4.22,3.88,3.88,0,0,0,4.7-.63,3.72,3.72,0,0,0,0-4.93s0,0,0,0a3.81,3.81,0,0,1-.23,4.69,3.43,3.43,0,0,1-3.71.8,4.7,4.7,0,0,0,3.4-1.52,3.62,3.62,0,0,0,.49-4,5.3,5.3,0,0,0,3-3.68,3.59,3.59,0,0,0-1.54-3.64,4,4,0,0,0-1.7-7.22,3.39,3.39,0,0,0-1-5.62,2.28,2.28,0,0,0,.17-2.46,3.79,3.79,0,0,0-2.37-1.72,2.75,2.75,0,0,0-1-2.4,2.49,2.49,0,0,0-3.2.25,6.83,6.83,0,0,0-3.86-2.93,3.57,3.57,0,0,0-3.68,1.34,4.9,4.9,0,0,0-7.32.32,3.46,3.46,0,0,0-3.44.08,5,5,0,0,0-1.8,1.67,2.58,2.58,0,0,0-3,.6,3.4,3.4,0,0,0-.79,2.8,2,2,0,0,1-.55.68,4.48,4.48,0,0,0-1.72,3.87,3.05,3.05,0,0,0-1.55,4.31,3.43,3.43,0,0,0-.53,4.8,5,5,0,0,0-1.56,3.86,2.91,2.91,0,0,0,1.7,2.7,1.75,1.75,0,0,0,.32,2.31,4.05,4.05,0,0,0,.78.58,3.76,3.76,0,0,1,1,.68,2.57,2.57,0,0,1,.31,1.16,4.26,4.26,0,0,0,.28.78,4.55,4.55,0,0,0,5.17,2.39,3.69,3.69,0,0,0,3.17,2.45,7.89,7.89,0,0,0,1.37.09,1.92,1.92,0,0,1,1.17.27c.23.15.42.34.65.49a3.13,3.13,0,0,0,2.49.24C492.89,285.12,497.75,285.05,499.73,282ZM480,247.44a2.72,2.72,0,0,1,2.95-1.09l-.06.13s-.38,0-.56,0a3.51,3.51,0,0,0-.95.3,3.55,3.55,0,0,0-1.53,1.39,3.82,3.82,0,0,0-.36.86l0,.11A3.32,3.32,0,0,1,480,247.44Zm26.24-1a2.62,2.62,0,0,0-3-.47l0-.07a2.31,2.31,0,0,1,3-.19,2.28,2.28,0,0,1,.86,2.11h0A2.88,2.88,0,0,0,506.25,246.43ZM492,281.26h0a4.72,4.72,0,0,0,6.37,1.69C496.11,284.44,493.27,284.41,492,281.26Z" style="fill:#263238"></path><path d="M481.93,294.92c2.35.6,8.2-2.8,10.91-6.14.18-.23.28-3,.56-6.31.17-2,.42-4.26.79-6.3l-13.33.78a32.79,32.79,0,0,1-.19,8,4.65,4.65,0,0,1-.24.82,1.27,1.27,0,0,0,0,.14C479.84,287.47,478.25,294,481.93,294.92Z" style="fill: rgb(235, 148, 129);"></path><path d="M481.69,286.25a8.56,8.56,0,0,1-1.3-.31c0-.06,0-.1,0-.14a3.41,3.41,0,0,0,.24-.82,32.87,32.87,0,0,0,.19-8l12.37-.72C492.1,279.42,488.6,287.34,481.69,286.25Z" style="fill:#263238"></path><path d="M500,260.67c.25,4.81-5.33,17.11-9.22,19.19-5.64,3-13.27,1.53-15.43-4.88-2.09-6.22,5.46-22.12,9.65-23.85C491.2,248.59,499.65,253.58,500,260.67Z" style="fill: rgb(235, 148, 129);"></path><path d="M484.84,264.79s.05.07,0,.11c-.43.8-.79,1.79-.19,2.43,0,0,0,.06,0,0C483.81,266.79,484.3,265.48,484.84,264.79Z" style="fill:#263238"></path><path d="M486,264.31c1.35.55.14,3.23-1.12,2.71S484.86,263.84,486,264.31Z" style="fill:#263238"></path><path d="M480.5,262.65s-.08,0-.1.05c-.35.84-.89,1.74-1.76,1.68,0,0,0,0,0,.05C479.6,264.71,480.3,263.5,480.5,262.65Z" style="fill:#263238"></path><path d="M480.15,261.45c-1.28-.7-2.6,1.92-1.41,2.58S481.23,262,480.15,261.45Z" style="fill:#263238"></path><path d="M487.6,263.56a11.28,11.28,0,0,1-.87-.83,1.94,1.94,0,0,1-.72-1,.61.61,0,0,1,.4-.64,1.54,1.54,0,0,1,1.48.49,2.25,2.25,0,0,1,.78,1.43A.66.66,0,0,1,487.6,263.56Z" style="fill:#263238"></path><path d="M479.69,260a9.85,9.85,0,0,0,1.19.2,1.91,1.91,0,0,0,1.25,0,.6.6,0,0,0,.28-.7,1.52,1.52,0,0,0-1.27-.9,2.28,2.28,0,0,0-1.62.22A.66.66,0,0,0,479.69,260Z" style="fill:#263238"></path><path d="M482.61,273.08a1.43,1.43,0,0,1-.92.17,2.51,2.51,0,0,1-.8-.61s-.06,0-.05,0a1.22,1.22,0,0,0,.85.93,1,1,0,0,0,1-.44A0,0,0,0,0,482.61,273.08Z" style="fill:#263238"></path><path d="M482.86,270.2a3.1,3.1,0,0,1-2.45.41,4.05,4.05,0,0,1-1-.42l-.18-.11A.82.82,0,0,1,479,270a.22.22,0,0,1-.08-.26h0a.41.41,0,0,1,.05-.09h0l0-.07c.28-.65.78-1.59.78-1.59-.29,0-1.72,0-1.55-.32a46.65,46.65,0,0,1,5-8,.08.08,0,0,1,.14.09c-1.25,2.63-3,5-4.27,7.65a5.41,5.41,0,0,1,1.51.2c.08.07-1,1.8-1.1,2.1v0a4.29,4.29,0,0,0,3.33.41C482.9,270.07,482.94,270.16,482.86,270.2Z" style="fill:#263238"></path><path d="M479.9,270a3.68,3.68,0,0,0,.86,1.64,1.62,1.62,0,0,0,.89.48c.74.12,1-.48,1.15-1.05a4.17,4.17,0,0,0,.06-.93A4.79,4.79,0,0,1,479.9,270Z" style="fill:#263238"></path><path d="M480.76,271.68a1.62,1.62,0,0,0,.89.48c.74.12,1-.48,1.15-1.05A1.72,1.72,0,0,0,480.76,271.68Z" style="fill:#ff99ba"></path><path d="M479.77,257.52c.49.14,2.64-.47,3.74-3.24.87.52,3.22-.3,4.12-.91a4.37,4.37,0,0,0,5.61,4.73,6.09,6.09,0,0,0,.14,3.83,5.57,5.57,0,0,0,2.25,2.59h0c-1.29,2.19.14,4.84,2.2,5a2.73,2.73,0,0,0,.57,0,3.42,3.42,0,0,0,2.83-1.25,3.49,3.49,0,0,0,0-4.18,3.27,3.27,0,0,0,1.44-3.32c-.15-.81-.94-1.43-.77-2.28a5,5,0,0,0,0-2.07,3.9,3.9,0,0,0-1.84-2.64,2.19,2.19,0,0,1-1-1,7.63,7.63,0,0,0-.48-.84,4.75,4.75,0,0,0-1.13-1.15,4.57,4.57,0,0,0-1.72-.79c-.67-.15-1.44,0-2-.39a9.17,9.17,0,0,0-2.94-.81,7,7,0,0,0-4.16.87,4.68,4.68,0,0,0-3.1,1.37,6,6,0,0,0-1.92,2.74s-.58.1-1.24,1.13A3.81,3.81,0,0,0,479.77,257.52Zm15.84,7.14a5.27,5.27,0,0,0,.43,3.54A3.29,3.29,0,0,1,495.61,264.66Zm-7.77-11.15a5.12,5.12,0,0,0,2.47,4A4.06,4.06,0,0,1,487.84,253.51Z" style="fill:#263238"></path><path d="M494.63,270.49s4-3.36,5.63-1.82-2.21,7-4.64,7.19a2.33,2.33,0,0,1-2.69-2Z" style="fill: rgb(235, 148, 129);"></path><path d="M499.13,270.2a0,0,0,0,1,0,.06,5.89,5.89,0,0,0-3.9,2.76,1.29,1.29,0,0,1,1.95.16s0,.1-.06.07a1.46,1.46,0,0,0-1.66.07,7,7,0,0,0-1.06,1c-.11.12-.34,0-.24-.17l0,0C494.67,272.17,497,269.82,499.13,270.2Z" style="fill:#263238"></path><path d="M511.07,361.29c-.15.14-54.17-8.85-54.63-9.49-.18-.24-4.13-3.17-2.22-9.48.53-1.74,2.93-3.71,3.77-6.09,5-14.39,14.49-42.2,21.14-49.41,2.63-2.86,10.68-3.77,14-.49C507.24,300.4,511.59,360.8,511.07,361.29Z" style="fill:#ebebeb"></path><path d="M480.67,285s-12,53.08-12.44,59.68,3.9,21.72,3.9,21.72c8.26,9.67,44.51,16.95,44.51,16.95s-10.12-88.81-22.45-97C487.71,282.06,480.67,285,480.67,285Z" style="fill:#FFD700"></path><path d="M508.92,345.86a3.27,3.27,0,0,0-1.73,2.57,10.31,10.31,0,0,0-.44,4.61c.12.85.49,2.09,1.59,1.88s1.69-2.08,2-3S511.46,344.79,508.92,345.86ZM500.28,353c-1.19,1-1.06,3-.81,4.37a9.92,9.92,0,0,0,1.09,3.16,2.71,2.71,0,0,0,1.21,1.3c1.48.61,1.59-1.34,1.7-2.32a9.84,9.84,0,0,0-.66-5.39C502.32,353.11,501.39,352.09,500.28,353Zm4.52-13.93c-.91-.11-1.42.59-1.68,1.51a8.42,8.42,0,0,0-.37,3.32c.08.67.22,1.84,1,2.14s1.36-.5,1.63-1.1C505.85,343.82,506.82,339.33,504.8,339.07Zm7.91,32.49c-.74-.53-1.52-.17-2.2.51a8.55,8.55,0,0,0-1.91,2.74c-.26.63-.69,1.72-.17,2.34s1.43.23,1.95-.17C511.35,376.23,514.36,372.76,512.71,371.56Zm-39.26-39.28c-1,1.22-.42,3.17.1,4.45a9.55,9.55,0,0,0,1.71,2.87,2.75,2.75,0,0,0,1.45,1c1.58.3,1.29-1.64,1.19-2.62a9.92,9.92,0,0,0-1.74-5.14C475.47,332,474.34,331.16,473.45,332.28Zm-.76,12.53c-.85.33-1,1.19-.77,2.13a8.66,8.66,0,0,0,1.23,3.1c.39.55,1.06,1.52,1.87,1.43s1-1.08.92-1.74C475.85,348.52,474.6,344.1,472.69,344.81Zm21.72-5.61c.88-.05,1.71,1.21,2.1,1.86a9.47,9.47,0,0,1,1.16,3.54c.09.72.35,2.23-.32,2.78-.82.66-1.6-.1-2.17-1.13a8.08,8.08,0,0,1-1.72-5.17C493.46,340.44,493.54,339.26,494.41,339.2Zm3.78,25.08c-1.17.87-.67,2.57-.21,3.68a10,10,0,0,0,3.56,4.38c.67.46,1.66,1,2.37.74s1-.84.95-1.77a9.3,9.3,0,0,0-2.68-5.17C501.3,365.15,499.71,363.15,498.19,364.28Zm7.38.32c.78,2.61,2.23,3.71,2.91,3.41,1.34-.6,1.1-2.89.6-4.58-.4-1.32-1.72-3.52-2.73-3.31C505.51,360.29,504.85,362.18,505.57,364.6Zm-27-13c-.44,2.69.38,4.31,1.13,4.34,1.47,0,2.25-2.12,2.54-3.86.22-1.36,0-3.92-1-4.17C480.41,347.68,479,349.1,478.58,351.59Zm16.8-52.31a3.27,3.27,0,0,0-2.88,1.14,10.39,10.39,0,0,0-3,3.56c-.38.76-.77,2,.25,2.44s2.57-.75,3.34-1.37S498.08,299.84,495.38,299.28Zm-11.16,1c-1.54.14-2.59,1.88-3.15,3.14a9.8,9.8,0,0,0-.89,3.22,2.75,2.75,0,0,0,.26,1.76c.87,1.34,2.08-.21,2.72-.95a9.94,9.94,0,0,0,2.51-4.81C485.83,301.53,485.64,300.15,484.22,300.28Zm9.87-10.63c-.69-.61-1.51-.32-2.24.29a8.48,8.48,0,0,0-2.18,2.53c-.32.6-.86,1.64-.41,2.32s1.4.36,2,0C492.26,294.16,495.6,291,494.09,289.65ZM482,312.83c-.83,2.6-.26,4.32.47,4.46,1.44.27,2.55-1.76,3.09-3.43.42-1.31.57-3.88-.38-4.28C484.4,309.24,482.78,310.43,482,312.83Zm18.05,14.37a2.26,2.26,0,0,0-.63,2.54,7.05,7.05,0,0,0,.76,2.14c.24.43.7.93,1.23.59s.59-1.42.55-2C501.92,329.74,501.6,326.17,500.05,327.2Zm-3.7-17.92a2.28,2.28,0,0,0-2.61.21,7.33,7.33,0,0,0-1.79,1.4c-.33.37-.66,1-.17,1.35s1.54.11,2.07-.1S497.81,310.42,496.35,309.28Z" style="fill:#263238"></path><path d="M491.42,298.08c-7.49,3.21-40.71,13.45-49.44,7.15-10.58-7.64-20.31-21.68-24.78-26.71-1.12-1.26,19.48-15,21.84-11.7,3.67,5.14,10.78,16.38,11.85,17.2,1.87,1.43,24,3.21,35.33,4.22C496.44,289.15,495.83,296.18,491.42,298.08Z" style="fill: rgb(235, 148, 129);"></path><path d="M442.8,272.37s-2-3.85-2.15-4.1a15.22,15.22,0,0,1-1.37-4.25c-1.26-5.65-8-18.6-24-21.07-6.16-.95-9.51,3-3.29,5.08,4.39,1.49,7.55,2.15,8.85,3,0,0-6.68,2.39-7.79,6.35A77.1,77.1,0,0,0,410.85,268a16.34,16.34,0,0,0,1.94.58,8.63,8.63,0,0,0,3.38,8.56l4.29,5.38Z" style="fill: rgb(235, 148, 129);"></path><path d="M437.21,258.82c-2.44-1.79-7.69-5.51-13-7-5.95-1.72-17.86-3.42-19.08,1-.9,3.22,3.59,4.27,3.59,4.27s-5.07.34-5.24,3.43c-.16,2.82,3.36,3.42,3.36,3.42s-3,.73-2.67,3.48c.45,3.29,6.75,1.22,10.1,4.17C415,272.18,437.21,258.82,437.21,258.82Z" style="fill: rgb(235, 148, 129);"></path><path d="M423.4,258.35a24.7,24.7,0,0,0-14.63-1.42c-.12,0-.16.14,0,.14a60.58,60.58,0,0,1,14.65,1.33A0,0,0,1,0,423.4,258.35Z" style="fill:#263238"></path><path d="M421.49,264.3c-2.34-.9-9.23-2.12-14.68-.54-.12,0-.16.15,0,.14a64.43,64.43,0,0,1,14.71.46A0,0,0,0,0,421.49,264.3Z" style="fill:#263238"></path><path d="M453.17,308.28l-1.58-24.36s27,1.72,38.92,4.47c10,2.31,9.38,8.25-3.14,12.15C475.51,304.23,453.17,308.28,453.17,308.28Z" style="fill:#FFD700"></path><path d="M461.38,293.62c-1.44-.55-3.15.55-4.21,1.43a10,10,0,0,0-2.22,2.5,2.78,2.78,0,0,0-.54,1.69c.19,1.59,1.95.73,2.86.35a9.93,9.93,0,0,0,4.37-3.21C462.28,295.45,462.72,294.14,461.38,293.62Zm5.93-6.59c-.35-.84-1.21-.95-2.14-.73a8.65,8.65,0,0,0-3.07,1.31c-.55.4-1.5,1.09-1.39,1.9s1.1.95,1.76.88C463.68,290.28,468.07,288.92,467.31,287Zm18.26,14.05c-1.19.34-2.47.7-3.79,1a3.47,3.47,0,0,1,2.44-1.84A1.19,1.19,0,0,1,485.57,301.08Zm8.52-11.43c-.69-.61-1.51-.32-2.24.29a8.48,8.48,0,0,0-2.18,2.53c-.32.6-.86,1.64-.41,2.32s1.4.36,2,0C492.26,294.16,495.6,291,494.09,289.65Zm-26.19,2c-2.67.5-3.92,1.83-3.69,2.53.46,1.4,2.76,1.4,4.49,1.07,1.36-.25,3.68-1.34,3.58-2.37C472.2,292,470.38,291.18,467.9,291.65Z" style="fill:#263238"></path><path d="M456.84,286.9a40.79,40.79,0,0,1,.6,4.65c.17,1.61.28,3.22.4,4.82s.35,8,.41,9.62c0,.07-.13.07-.14,0-.17-1.6-.87-8-1-9.55s-.23-3.15-.29-4.72a40.68,40.68,0,0,1-.08-4.81S456.83,286.86,456.84,286.9Z" style="fill:#263238"></path><path d="M491.35,299.07a184.88,184.88,0,0,1-38.29,9.34c0-.86-.05-1.72-.05-2.58.1.81.19,1.62.27,2.44l-.13-.11c3.22-.62,6.43-1.22,9.63-1.94,9.25-2,19.39-4.66,28.57-7.15Z" style="fill:#263238"></path><path d="M490.83,300a8.67,8.67,0,0,1-4.31.46c1.45-.1,2.86-.3,4.31-.46Z" style="fill:#263238"></path><path d="M478.65,286.43a49.52,49.52,0,0,1,11.48,1.88,101.7,101.7,0,0,1-11.48-1.88Z" style="fill:#263238"></path><path d="M485.92,287.44a6,6,0,0,1,3-.18,17.36,17.36,0,0,1-3,.18Z" style="fill:#263238"></path></g><g id="freepik--character-2--inject-35"><path d="M392.07,433.24c-2,.69-60.36.82-62.58-.59-.86-.52-1.37-9-1.7-19.3V413c-.07-2.12-3-37-3-37l38,.46,2.6,36.08v.64s22.34,9.93,24.63,11.74S394.1,432.56,392.07,433.24Z" style="fill: rgb(235, 148, 129);"></path><path d="M392.06,433.24c-2,.7-60.35.82-62.57-.59-.73-.44-1.22-6.71-1.54-14.93,9.16,1.52,53.32,8.66,54.34,5,.21-.78-.8-1.82-2.14-2.81a98.4,98.4,0,0,1,9.88,5C392.29,426.71,394.1,432.56,392.06,433.24Z" style="fill:#263238"></path><path d="M266.28,240.69S314.93,317,316,322.26c1.67,8.16,9.88,89.85,9.88,89.85l41.76-.06s-8.1-72.19-15.19-95.64c-5.11-16.89-43.16-73.31-43.16-73.31Z" style="fill:#263238"></path><path d="M364.83,404.86c-6.32-.17-28.73-.86-37.16-.2-.07,0-.07.12,0,.13,2.89.49,30.84.35,37.17.26A.1.1,0,0,0,364.83,404.86Z" style="fill:#37474f"></path><path d="M301.54,445.33c-2.15.07-58-16.87-59.66-18.87-.67-.75,1.33-9,4-18.95l.09-.31c.55-2.05,14.45-32.9,14.45-32.9l36.19,11.55-14.51,31.87-.2.61s18.46,16,20.11,18.43S303.69,445.27,301.54,445.33Z" style="fill: rgb(235, 148, 129);"></path><path d="M301.54,445.33c-2.15.07-58-16.87-59.66-18.87-.57-.64.8-6.77,2.89-14.73,8.32,4.14,48.46,23.88,50.51,20.66.43-.69-.23-2-1.23-3.31a93.83,93.83,0,0,1,8,7.68C303.67,439.14,303.69,445.27,301.54,445.33Z" style="fill:#263238"></path><path d="M284.42,419l-41.2-11.63s43-85.52,42.83-90.91c-.19-4.78-28.17-47.17-29.62-55-2.36-12.88,4.1-24.22,10.29-31.2l42.59,12.86s-3.55,7.34-9.9,11.9c0,0,26.08,45.43,26.5,60.23S284.42,419,284.42,419Z" style="fill:#263238"></path><path d="M285.22,411.57c-6-1.83-4.23-1.39-10.22-3.15-2.94-.87-22.22-6.52-25.09-6.85-.07,0-.1.1,0,.13,2.62,1.23,22,6.55,24.95,7.36,6,1.64,4.31,1.1,10.35,2.69C285.29,411.77,285.34,411.6,285.22,411.57Z" style="fill:#37474f"></path><path d="M306,253.4a77.32,77.32,0,0,0-12,5.37.13.13,0,0,0,.11.24c4-1.67,8.14-3.27,12.07-5.15C306.55,253.72,306.34,253.29,306,253.4Z" style="fill:#37474f"></path><path d="M301,252.25a17,17,0,0,0-.81,2.3,4.88,4.88,0,0,0-.33,1.88c0,.12.18.14.25.05a6.32,6.32,0,0,0,.83-1.83c.27-.71.56-1.42.81-2.13A.4.4,0,0,0,301,252.25Z" style="fill:#37474f"></path><path d="M301.09,248.37c.18-.65.36-1.31.56-2s.45-1.34.59-2a.09.09,0,0,1,.17.05c-.18.66-.27,1.34-.4,2s-.27,1.34-.41,2c-.27,1.24-.63,2.49-1,3.7a4.54,4.54,0,0,0,1.92-.55,3.58,3.58,0,0,0,1.2-1.81c.28-.74.53-1.49.83-2.23a15.52,15.52,0,0,0,.87-2.48c0-.11.19-.06.16,0a27.11,27.11,0,0,1-1.62,5.26,2.94,2.94,0,0,1-1.2,1.66,5.84,5.84,0,0,1-2.31.41c-.09,0-.22,0-.2-.13C300.46,251,300.73,249.66,301.09,248.37Z" style="fill:#37474f"></path><path d="M300.22,256.49c1.57,3,3.39,5.82,5.07,8.73s3.22,5.73,4.75,8.63q4.65,8.81,8.55,18c1.28,3,2.5,6.08,3.63,9.16a69.63,69.63,0,0,1,2.93,9.44,25.5,25.5,0,0,1,.24,9.77,66.76,66.76,0,0,1-2.7,9.7,177.16,177.16,0,0,1-8.48,21.32c-.11.23-.5,0-.41-.19,2.38-6.34,4.84-12.65,7-19.07,2.09-6.23,4.55-12.69,3.58-19.36a50.13,50.13,0,0,0-2.54-9.39q-1.65-4.7-3.55-9.28c-2.49-6-5.3-11.9-8.18-17.75-1.61-3.28-3.3-6.52-4.93-9.79s-3.24-6.66-5.1-9.84C300,256.47,300.17,256.39,300.22,256.49Z" style="fill:#37474f"></path><path d="M269.15,249.63c.78-.12,1.91.17,5.27,0a17.45,17.45,0,0,0,2.77-.4,6,6,0,0,0,2.57-1,13.43,13.43,0,0,0,3-4,20.71,20.71,0,0,0,2.13-4.93c0-.1.18,0,.16.05-.2,1-.31,2-.59,2.93a17.61,17.61,0,0,1-1,2.64,10.76,10.76,0,0,1-3.08,4.37c-1.53,1.12-3.65,1.29-5.49,1.38-1.06.06-5.22-.13-5.77-.74C269,249.88,269,249.65,269.15,249.63Z" style="fill:#37474f"></path><path d="M251.76,400.46c4.71-11.67,30-63.25,34.94-74a42.88,42.88,0,0,0,3.24-8c.7-3-.19-5.78-1.42-8.53a145.3,145.3,0,0,0-7.73-14.66c-2.82-4.76-5.81-9.43-8.76-14.12a144.58,144.58,0,0,1-8.38-14.26,25.83,25.83,0,0,1-2.72-15c.77-5.21,3.12-10.08,5.64-14.65.66-1.21,1.34-2.41,2-3.62.05-.09.19,0,.14.09-2.8,4.79-5.49,9.83-6.85,15.25a24.89,24.89,0,0,0-.75,8.2,26,26,0,0,0,2.17,8.06c2.16,5,5.22,9.6,8.09,14.19s5.95,9.36,8.81,14.1a157.93,157.93,0,0,1,8,14.7,21.44,21.44,0,0,1,2.43,7.1c.24,2.75-.8,5.36-1.9,7.82-4.8,10.71-36,76.2-36.69,77.52C251.91,400.78,251.69,400.63,251.76,400.46Z" style="fill:#37474f"></path><path d="M317.22,160.65s8.12-4.42,15.33,0S343.19,176,342,185.11s6.33,15.18,7.15,22-3.71,9.93-5.23,13.5c-1.74,4.08,5.23,18.57-12.5,21.93-22.16,4.21-30.64-9.23-28.38-20.34,1.11-5.44,4.21-9.3,4.16-13.71s-3.22-7.91-1.57-13.49,3.83-4.82,4.73-13.59S309.37,162.14,317.22,160.65Z" style="fill:#263238"></path><path d="M331,160.44a27.19,27.19,0,0,1,10.48,12.43,24.74,24.74,0,0,1,1.88,7.95c.23,3.57-.33,6.92,1,10.38,2.16,5.56,6.48,10.19,6.28,16.37a15.18,15.18,0,0,1-2.67,8.07c-1.91,2.8-4.64,5-6.24,8a.11.11,0,0,1-.2-.11c1.33-2.66,3.5-4.69,5.3-7.07a15.37,15.37,0,0,0,3.28-9.72c-.17-5.88-4.43-10.39-6.42-15.75a18.56,18.56,0,0,1-.88-7.32,26.27,26.27,0,0,0-1.15-8.84A28.59,28.59,0,0,0,331,160.52S331,160.41,331,160.44Z" style="fill:#263238"></path><path d="M340.34,227.21a0,0,0,1,1,0,0A0,0,0,1,1,340.34,227.21Z" style="fill:#263238"></path><path d="M303.07,220.6c.56-2.63,1.95-5,2.51-7.63.67-3.15-.14-6.29-.75-9.39-.87-4.42-.77-8.59,1.21-12.75a75.27,75.27,0,0,0,3.78-8,32.45,32.45,0,0,0,1.69-9.49c0-.07.12-.07.12,0a29.94,29.94,0,0,1-3,13.54c-1.21,2.48-2.72,4.81-3.41,7.5a21.87,21.87,0,0,0,.06,9.56,36,36,0,0,1,.82,6.53,17.9,17.9,0,0,1-1.56,6.43,22.35,22.35,0,0,0,.09,16.67c0,.1-.13.16-.17.07A21.26,21.26,0,0,1,303.07,220.6Z" style="fill:#263238"></path><path d="M349.69,206.29c-.2-4.84-3.62-8.13-5.7-12.32-1.57-3.17-2.63-6.56-2.11-10.05a.06.06,0,0,1,.11,0c-.27,5.06,1.88,9.64,4.72,13.88,1.89,2.81,3.46,5.52,3.47,8.91s-1.33,6.12-3.25,8.86a18.94,18.94,0,0,0-3.29,6.1,24.57,24.57,0,0,0-.33,7.06c0,.12-.2.12-.21,0-.32-3.63-.38-7.14,1.48-10.45C346.85,214.22,349.89,211.21,349.69,206.29Z" style="fill:#263238"></path><path d="M302.22,217.16a29.82,29.82,0,0,1,2.82-4.68,9.53,9.53,0,0,0,1.57-8.17c0-.07.1-.1.12,0,.9,2.66,1.12,4.87-.48,7.33-2.24,3.42-4.43,6.54-4.89,10.62-.81,7.25,3.34,14,10.08,17.68a.08.08,0,0,1-.09.14c-5.65-2.74-9.62-7.71-10.44-13.56A17.13,17.13,0,0,1,302.22,217.16Z" style="fill:#263238"></path><path d="M308.74,189.5c-.22.9.94,8,4.69,9.73,1.22.55,4.51-6,4.51-6l.36-.42,4.94-6-5.32-9.11-.8-1.25s-1.25,1.72-2.78,3.88l-.21.3-.26.35-.7,1c-.17.25-.34.49-.51.76s-.36.53-.54.8A50.77,50.77,0,0,0,308.74,189.5Z" style="fill: rgb(235, 148, 129);"></path><path d="M314.34,180.38a15.52,15.52,0,0,0,4,12.45l4.94-6-5.32-9.11-.8-1.25S315.87,178.22,314.34,180.38Z" style="fill:#263238"></path><path d="M337.91,177.25c-.87,13.57-9.07,14.72-12,14.39-2.64-.3-11.68-1.1-12.21-14.69s6-17.47,12.14-17.39S338.78,163.68,337.91,177.25Z" style="fill: rgb(235, 148, 129);"></path><path d="M337.19,174a8.52,8.52,0,0,1-.9-.26,1.56,1.56,0,0,1-.87-.45.48.48,0,0,1,.05-.59,1.2,1.2,0,0,1,1.2-.19,1.77,1.77,0,0,1,1.05.71A.52.52,0,0,1,337.19,174Z" style="fill:#263238"></path><path d="M328.4,173.77c.32,0,.61-.08.93-.12a1.52,1.52,0,0,0,.93-.3.48.48,0,0,0,0-.59,1.19,1.19,0,0,0-1.15-.38,1.78,1.78,0,0,0-1.16.54A.52.52,0,0,0,328.4,173.77Z" style="fill:#263238"></path><path d="M330.13,177.26s-.08,0-.08.08c0,.93-.2,2-1.06,2.24,0,0,0,.06,0,.06C330,179.55,330.25,178.14,330.13,177.26Z" style="fill:#263238"></path><path d="M329.36,176.25c-1.48-.2-1.77,2.78-.4,3S330.6,176.42,329.36,176.25Z" style="fill:#263238"></path><path d="M328.76,176.35c-.28.15-.56.42-.88.42s-.61-.34-.82-.66c0,0-.05,0-.05,0-.06.57.1,1.17.7,1.32s1-.34,1.2-.9C329,176.46,328.87,176.3,328.76,176.35Z" style="fill:#263238"></path><path d="M335.13,177.23s.07.05.06.09c-.12.91-.11,2,.69,2.38,0,0,0,.06,0,.05C334.86,179.5,334.86,178.08,335.13,177.23Z" style="fill:#263238"></path><path d="M336.05,176.35c1.49,0,1.3,3-.08,3S334.8,176.32,336.05,176.35Z" style="fill:#263238"></path><path d="M336.66,176.59c.23.17.44.47.72.51s.59-.27.82-.56c0,0,0,0,0,0,0,.57-.25,1.16-.8,1.23s-.84-.44-.94-1C336.48,176.67,336.57,176.52,336.66,176.59Z" style="fill:#263238"></path><path d="M329.43,184.38c.19.24.36.57.69.64a2.21,2.21,0,0,0,1-.09s.06,0,0,.06a1.26,1.26,0,0,1-1.23.33,1,1,0,0,1-.61-.91A.05.05,0,0,1,329.43,184.38Z" style="fill:#263238"></path><path d="M333.57,181.37s.07,1.39,0,2c0,.06-.17.08-.39.07,0,0,0,0,0,0a3.1,3.1,0,0,1-2.9-1.41c0-.06.05-.12.1-.08a4.76,4.76,0,0,0,2.76,1c.06-.18-.21-2.39-.11-2.38a6,6,0,0,1,1.45.45c-.07-2.9-.6-5.78-.63-8.67a.09.09,0,0,1,.17,0,46.75,46.75,0,0,1,1.08,9.32C335.11,182.1,333.82,181.5,333.57,181.37Z" style="fill:#263238"></path><path d="M333.19,183a3.87,3.87,0,0,1-1.48,1.22,1.74,1.74,0,0,1-1,.1c-.75-.18-.79-.86-.67-1.46a4.06,4.06,0,0,1,.3-.91A5,5,0,0,0,333.19,183Z" style="fill:#263238"></path><path d="M331.71,184.2a1.74,1.74,0,0,1-1,.1c-.75-.18-.79-.86-.67-1.46A1.78,1.78,0,0,1,331.71,184.2Z" style="fill:#ff99ba"></path><path d="M314,177.12c1.49.08,5.81-3.55,6.73-10.67,0,0-1.27,6.34-1.86,7.22s2.41-2,3.24-7.78a23.44,23.44,0,0,0,5.56,3.74c2.64,1.07,4.3,1.23,4.52,1.06s-3.64-1.89-4.58-3.26c0,0,6.85,4.18,10.15,4.81.39.08.83-6.26-3.94-10.21s-12.44-2.79-14.87-.92c0,0-2.62.08-5.86,3.57S312.44,177,314,177.12Z" style="fill:#263238"></path><path d="M316.35,177.46s-2.89-4.3-4.83-3.27.18,7.21,2.43,8.09a2.3,2.3,0,0,0,3.1-1.18Z" style="fill: rgb(235, 148, 129);"></path><path d="M312.17,176s0,0,0,.06a5.83,5.83,0,0,1,2.94,3.68,1.28,1.28,0,0,0-1.89-.38s0,.1,0,.09a1.41,1.41,0,0,1,1.55.52,7.18,7.18,0,0,1,.72,1.27c.07.14.33.07.28-.09l0,0C315.86,179,314.34,176.19,312.17,176Z" style="fill:#263238"></path><path d="M314.07,234.41l-3.38,10.74-45.32-15.51s20.05-32.36,36.73-39.32c8.34-3.48,14.66,0,16.88,6.11.57,1.56,5.34,22,3.74,29C321.3,231.52,314.07,234.41,314.07,234.41Z" style="fill:#455a64"></path><path d="M307.65,199.84c-2.94,7.44-11.14,37.61-4.71,46,7.78,10.18,21.83,19.35,26.89,23.6,1.27,1.07,14.2-19.53,10.89-21.75-5.14-3.46-17-11.37-17.8-12.4-1.46-1.79-3.2-22.22-4.5-33.33C317.25,192,309.39,195.45,307.65,199.84Z" style="fill: rgb(235, 148, 129);"></path><path d="M349.35,259.08c-.77-1.27-.11-1.69,2.36-.76s11.48,6.72,13.23,3.41-11.07-11.29-15.31-12.52a69.53,69.53,0,0,0-11.52-1.75C340.29,249.51,345.11,255,349.35,259.08Z" style="fill: rgb(235, 148, 129);"></path><path d="M324.85,265.1c6.36,5.56,13.94,12.86,23.31,14.62a4.68,4.68,0,0,0,3.07-.38c4.18.87,5.84-.85,5.84-.85,4.15-.39,5.61-2.38,5.61-2.38s4.92,1,6-1.91c1.21-3.23-5.94-3.95-9.63-6.75-8.46-6.41-18.69-17.9-20.94-20Z" style="fill: rgb(235, 148, 129);"></path><path d="M345.46,267a69,69,0,0,0,7.72,5.2,68.05,68.05,0,0,0,9.45,3.85.08.08,0,0,1-.05.16,36.07,36.07,0,0,1-17.2-9.1C345.27,267,345.33,266.87,345.46,267Z" style="fill:#263238"></path><path d="M340.85,271.5c2.55,1.65,7.07,4.53,16.25,6.89,0,0,0,.07,0,.06a32.3,32.3,0,0,1-16.32-6.83C340.62,271.51,340.68,271.39,340.85,271.5Z" style="fill:#263238"></path><path d="M338.41,274a51,51,0,0,0,12.8,5.33s0,.06,0,.05c-6.1-1.17-8.18-2.29-12.9-5.24C338.14,274,338.24,273.89,338.41,274Z" style="fill:#263238"></path><path d="M335.5,244.06,324,266.86s-19-13.18-22.78-22.11.95-29.91,4.63-41.2S318,188.4,319.55,207s3.21,26.8,3.76,27.69S335.5,244.06,335.5,244.06Z" style="fill:#455a64"></path><path d="M307.75,253.45c-.21-.75-5.32-4.8-7.23-11.63-.83-3-.46-11.64.35-17,.31-2.05.81-4.06,1.25-6.08.88-4.08,1.86-8.16,2.47-12.29,0-.05-.06-.06-.08,0-.87,2.53-1.58,5.12-2.2,7.73,0-.15,0-.29,0-.44a37.47,37.47,0,0,1-.09-3.82.08.08,0,0,0-.15,0c0,1.27-.17,2.52-.22,3.78,0,.61-.05,1.22,0,1.83,0,.23,0,.48,0,.73-.18.81-.36,1.62-.52,2.43-.41,2.07-.7,4.16-1.07,6.23-1,5.72-1.48,13.4-.43,17.55,1.79,7,7.66,10.68,7.79,11C307.65,253.53,307.78,253.55,307.75,253.45Z" style="fill:#263238"></path><path d="M320.48,263.13A58.51,58.51,0,0,0,323.3,258q1.35-2.57,2.65-5.14c1.75-3.47,3.6-6.92,5.13-10.5,0-.08-.08-.15-.13-.07-2.1,3.31-3.87,6.85-5.66,10.33q-1.35,2.63-2.62,5.29a49.39,49.39,0,0,0-2.33,5.2C320.31,263.16,320.43,263.2,320.48,263.13Z" style="fill:#263238"></path></g></svg>